HIERARCHY
ROOT Hips
{
	OFFSET -0.179506 -22.333345 2.821913
	CHANNELS 6 Xposition Yposition Zposition Zrotation Yrotation Xrotation 
	JOINT LeftUpLeg
	{
		OFFSET 6.951974 -9.140623 -0.681533
		CHANNELS 3 Zrotation Yrotation Xrotation
		JOINT LeftLeg
		{
			OFFSET 3.427654 -37.519855 -0.449580
			CHANNELS 3 Zrotation Yrotation Xrotation
			JOINT LeftFoot
			{
				OFFSET -1.359570 -39.796059 -4.369333
				CHANNELS 3 Zrotation Yrotation Xrotation
				JOINT LeftToe
				{
					OFFSET 2.635814 -5.579078 11.928840
					CHANNELS 3 Zrotation Yrotation Xrotation
					End Site
					{
						OFFSET 0.000000 0.000000 0.000000
					}
				}
			}
		}
	}
	JOINT RightUpLeg
	{
		OFFSET -6.767048 -9.052170 -0.431982
		CHANNELS 3 Zrotation Yrotation Xrotation
		JOINT RightLeg
		{
			OFFSET -3.829005 -38.256897 -0.885003
			CHANNELS 3 Zrotation Yrotation Xrotation
			JOINT RightFoot
			{
				OFFSET 1.577377 -39.841461 -4.231180
				CHANNELS 3 Zrotation Yrotation Xrotation
				JOINT RightToe
				{
					OFFSET -2.537174 -4.814398 12.334795
					CHANNELS 3 Zrotation Yrotation Xrotation
					End Site
					{
						OFFSET 0.000000 0.000000 0.000000
					}
				}
			}
		}
	}
	JOINT Spine
	{
		OFFSET -0.253288 10.896323 -2.669631
		CHANNELS 3 Zrotation Yrotation Xrotation
		JOINT Spine1
		{
			OFFSET 0.548704 13.518043 0.109247
			CHANNELS 3 Zrotation Yrotation Xrotation
			JOINT Spine2
			{
				OFFSET 0.145701 5.292222 2.542457
				CHANNELS 3 Zrotation Yrotation Xrotation
				JOINT Neck
				{
					OFFSET -0.277840 21.387037 -4.285703
					CHANNELS 3 Zrotation Yrotation Xrotation
					JOINT Head
					{
						OFFSET 0.515184 6.496960 5.134897
						CHANNELS 3 Zrotation Yrotation Xrotation
						End Site
						{
							OFFSET 0.000000 0.000000 0.000000
						}
					}
				}
				JOINT LeftShoulder
				{
					OFFSET 7.884473 12.174932 -3.408961
					CHANNELS 3 Zrotation Yrotation Xrotation
					JOINT LeftArm
					{
						OFFSET 9.097692 3.046888 -0.886815
						CHANNELS 3 Zrotation Yrotation Xrotation
						JOINT LeftForeArm
						{
							OFFSET 25.961220 -1.277207 -2.745643
							CHANNELS 3 Zrotation Yrotation Xrotation
							JOINT LeftHand
							{
								OFFSET 24.923361 0.898606 -0.117091
								CHANNELS 3 Zrotation Yrotation Xrotation
								End Site
								{
									OFFSET 0.000000 0.000000 0.000000
								}
							}
						}
					}
				}
				JOINT RightShoulder
				{
					OFFSET -8.175920 11.883285 -3.861528
					CHANNELS 3 Zrotation Yrotation Xrotation
					JOINT RightArm
					{
						OFFSET -9.601238 3.255117 -0.914307
						CHANNELS 3 Zrotation Yrotation Xrotation
						JOINT RightForeArm
						{
							OFFSET -25.374195 -1.332924 -2.140099
							CHANNELS 3 Zrotation Yrotation Xrotation
							JOINT RightHand
							{
								OFFSET -25.529810 0.777228 -0.555919
								CHANNELS 3 Zrotation Yrotation Xrotation
								End Site
								{
									OFFSET 0.000000 0.000000 0.000000
								}
							}
						}
					}
				}
			}
		}
	}
}
MOTION
Frames: 13
Frame Time: 0.033333
-127.172241 140.578659 87.665825 144.197130 3.523314 96.455003 23.066845 6.059982 -34.572848 -14.659515 -6.070694 42.290726 -4.448014 -10.131107 -17.268368 nan nan nan -18.592840 -12.401428 -28.820922 -4.602644 -12.750036 55.887798 10.004778 5.659656 -16.113078 nan nan nan -0.745159 6.382085 39.233900 1.007066 -0.168422 -3.211238 4.366197 0.038804 -3.839614 -2.160513 3.632341 -21.320987 12.391605 -5.270153 -18.173593 -19.076704 -20.910949 -0.085490 -48.478350 -22.964231 14.315077 171.897810 -76.731172 -139.698659 1.281378 -14.295245 -11.818710 21.411712 12.481087 4.195802 52.163135 -4.527775 5.280989 -13.163770 66.821115 15.646623 5.831948 8.052836 9.701216 
-126.656364 140.190933 87.434120 143.665784 3.599088 96.391737 23.694760 6.533580 -34.359226 -14.709981 -5.695086 42.510111 -4.321524 -10.361470 -17.289123 nan nan nan -19.555785 -12.990640 -28.686781 -4.836145 -12.835678 55.652421 10.006901 5.366209 -15.574298 nan nan nan -0.638181 6.681547 38.985827 1.249597 -0.086513 -2.985428 4.597976 -0.146192 -3.995685 -2.173546 3.533848 -21.410751 12.435807 -5.153062 -17.789577 -18.932720 -21.400136 0.154433 -48.689191 -23.475596 13.862071 170.446245 -76.479351 -138.056027 1.229416 -14.579058 -11.486392 21.552536 11.790209 4.508851 52.375242 -5.703489 3.620854 -19.775592 66.495594 10.853388 6.246492 7.555081 13.603958 
-126.210114 139.815186 87.202705 143.067498 3.526223 96.490669 24.090675 6.893855 -34.415257 -14.608940 -5.115150 42.946063 -4.029025 -10.416228 -17.417235 nan nan nan -20.542607 -13.814401 -28.817694 -4.900024 -12.570188 55.330002 9.634929 4.918969 -15.008231 nan nan nan -0.577865 6.849147 38.362594 1.446528 -0.307004 -2.569828 4.777828 -0.077434 -4.089554 -2.572452 3.339416 -21.265549 12.674254 -4.855756 -17.842326 -19.164821 -21.744274 0.280678 -48.817913 -24.054069 13.544229 169.932605 -76.485960 -139.409126 1.460015 -14.816616 -9.854121 21.827727 11.186623 4.929487 52.360143 -6.746435 1.834307 -26.092304 65.972888 4.218591 5.762920 7.240969 16.676819 
-125.656326 139.439529 86.988052 142.526143 3.648607 96.340540 24.615742 7.496756 -34.261093 -14.618773 -4.915430 43.632940 -3.733295 -10.429775 -17.684287 nan nan nan -21.401119 -14.703560 -28.685622 -4.903441 -12.477406 55.204494 9.229400 4.606203 -14.630459 nan nan nan -0.337080 6.450697 38.163526 1.594470 -0.948521 -3.001787 4.639565 0.500151 -3.458481 -3.160304 3.575121 -20.798784 13.136706 -4.438451 -18.499810 -19.608390 -21.916225 0.164679 -47.822972 -24.466260 12.767132 172.165772 -76.149625 -142.782113 1.492898 -14.470240 -10.512088 22.576430 10.761122 5.483117 52.175887 -7.570122 -0.290211 -32.243851 65.059417 -2.227939 4.611594 6.728804 18.138847 
-125.157265 139.009766 86.662750 141.872731 3.721893 95.756321 25.211076 7.830472 -33.708497 -14.653654 -4.741620 44.258256 -3.573061 -10.131494 -17.974631 nan nan nan -22.385769 -15.506674 -28.398559 -4.725696 -12.173332 55.172018 9.113735 4.027972 -14.313999 nan nan nan -0.196308 7.427139 37.857633 2.096979 -0.105539 -1.386521 5.321398 -0.694589 -4.098604 -3.137964 3.792815 -21.776512 12.397316 -4.705885 -17.705534 -18.804239 -22.484008 0.122447 -48.430331 -25.983023 12.121484 171.032323 -76.010459 -139.457689 0.750512 -14.303066 -13.798363 21.779940 9.205159 4.492412 52.151495 -8.213362 -1.575234 -37.025889 63.876328 -5.743900 3.612884 6.480963 17.326221 
-124.569412 138.634232 86.338257 141.065136 3.700256 95.285944 25.675169 8.551627 -33.110217 -14.609348 -4.613760 44.912861 -3.607544 -10.093432 -18.412515 nan nan nan -23.437699 -16.297517 -28.302994 -5.098534 -12.163416 55.332740 8.871095 3.949291 -14.066968 nan nan nan -0.214732 7.060628 38.568533 2.106582 -0.585070 -2.435829 5.345716 -0.754431 -3.987406 -2.948664 4.201208 -20.682738 12.556070 -3.955375 -17.771700 -18.593799 -22.057695 0.328887 -48.495533 -26.288120 11.535126 170.485834 -75.366620 -139.085695 0.487876 -14.219776 -15.345293 22.084072 8.403371 4.958139 51.696162 -8.469008 -3.062765 -40.125052 62.466170 -9.087055 1.028875 6.517642 17.661487 
-123.977036 138.222214 86.026398 140.111230 3.819533 94.896107 26.430331 9.240056 -32.492650 -14.755381 -4.532798 45.580799 -3.945574 -9.972085 -18.909854 nan nan nan -24.299832 -16.932876 -28.413723 -5.202020 -12.118445 55.443020 8.579417 3.626801 -13.996125 nan nan nan -0.226531 6.733904 38.440095 2.330836 -1.015645 -2.426906 5.368926 -0.647896 -3.840650 -2.981152 4.842544 -19.872605 12.465892 -3.260706 -18.215017 -18.686819 -21.858310 0.355013 -47.872266 -26.679457 10.720365 170.898575 -74.709257 -139.489185 0.432079 -14.190182 -16.681115 22.378619 7.573735 5.104550 50.684973 -8.553232 -4.723794 -42.696110 61.394974 -12.605502 -0.429907 6.143032 16.401311 
-123.411812 137.835281 85.703171 139.209638 4.010633 94.575411 27.280460 9.695552 -31.930128 -14.933060 -4.518038 46.224457 -4.286497 -9.723148 -19.416016 nan nan nan -25.120827 -17.591210 -28.545215 -5.128450 -12.135573 55.422464 8.526369 3.163687 -14.023054 nan nan nan 0.044635 6.389710 38.422851 2.560961 -1.163657 -2.586741 5.426735 -0.813000 -3.683714 -3.221417 5.285189 -19.645067 12.196628 -2.761222 -18.192110 -18.926436 -21.772494 0.462406 -47.360846 -27.033512 10.194368 170.412509 -73.907372 -138.869944 0.165003 -14.391470 -18.315303 22.235653 6.388493 4.540738 49.493769 -8.886454 -6.232628 -43.914345 60.615441 -14.872560 1.502390 5.015283 14.242877 
-122.847038 137.482498 85.318031 138.454636 4.169421 93.908858 28.065518 9.991315 -31.159048 -15.056238 -4.653391 46.973135 -4.594688 -9.512318 -19.965103 nan nan nan -26.093386 -18.345868 -28.338711 -5.204738 -12.228780 55.539816 8.521725 2.787876 -14.079969 nan nan nan 0.475361 5.997950 38.746400 2.773973 -1.374272 -2.869489 5.452423 -1.085138 -3.319927 -3.366831 5.861775 -19.610571 11.878116 -2.435253 -17.903288 -18.737804 -21.831761 0.373127 -47.045264 -27.505529 9.767403 169.514920 -73.318130 -137.930304 0.470109 -14.272570 -19.545592 21.900475 5.447479 3.946383 48.288891 -9.334857 -7.474323 -45.552956 59.541126 -18.188643 0.202118 4.587183 11.821364 
-122.213928 137.133774 84.917542 137.444910 4.241575 93.226441 28.951939 10.378495 -30.063110 -15.238279 -4.679915 47.451251 -4.873145 -9.400639 -20.460478 nan nan nan -27.052326 -18.964537 -28.345595 -5.348097 -12.376362 55.728298 8.439598 2.363803 -14.225007 nan nan nan 0.545953 5.685627 38.925140 2.917151 -1.454156 -2.971385 5.654227 -1.373330 -3.195153 -3.396576 6.277941 -19.134324 11.548690 -1.601999 -17.712800 -18.506469 -21.963222 0.334397 -46.815517 -27.734968 9.319117 167.998992 -72.602861 -136.076647 0.478753 -14.147010 -20.452320 21.503404 4.992994 3.779936 46.930168 -9.872604 -8.628270 -46.361780 58.270833 -20.428905 0.127320 4.294569 10.565865 
-121.597076 136.772476 84.537582 136.386340 4.344690 92.709159 29.832404 10.719750 -29.071772 -15.258466 -4.638557 47.864313 -5.349066 -9.285611 -20.910079 nan nan nan -27.854674 -19.512575 -28.560674 -5.630654 -12.715831 55.769997 8.292887 1.947264 -14.393415 nan nan nan 0.712557 5.193974 39.107801 2.958789 -1.496636 -3.277731 5.858641 -1.660838 -3.096880 -3.582318 6.625640 -18.625466 11.183998 -0.705607 -17.525501 -18.296930 -22.025721 0.399459 -46.789191 -27.835998 8.899499 166.124440 -71.652133 -133.633920 0.074417 -14.377086 -21.531774 20.942815 4.689039 3.964168 45.508199 -10.332775 -9.836423 -46.333934 57.198334 -21.395137 0.193558 4.335484 9.271290 
-120.964508 136.391846 84.156624 135.218094 4.448182 92.189710 30.671483 11.293140 -27.993176 -15.331882 -4.876599 48.243090 -6.957805 -9.519420 -20.948823 nan nan nan -28.502648 -20.174839 -29.024306 -5.948211 -12.913468 55.963458 8.063196 1.577238 -14.376364 nan nan nan 0.976375 4.627725 39.199454 2.917018 -1.414262 -3.383909 5.905370 -1.917701 -3.031994 -3.746103 7.035950 -18.448972 10.756669 -0.070587 -17.130503 -17.887344 -22.028271 0.510789 -46.562974 -28.183757 8.420363 164.605165 -70.692638 -131.841020 -0.430271 -14.910868 -22.686000 20.176223 4.324744 3.879828 44.182137 -10.878346 -10.811706 -45.673742 56.403273 -22.331426 1.153757 4.478293 6.257145 
-120.331841 135.985138 83.791824 134.095943 4.478112 91.688983 31.488537 11.548426 -26.875630 -15.439821 -5.061765 48.520222 -7.289829 -9.154485 -21.540354 nan nan nan -29.161813 -21.050098 -29.695507 -5.872946 -13.004330 56.471062 7.788542 0.908210 -14.118226 nan nan nan 1.261722 4.068631 39.400664 2.879301 -1.379671 -3.853811 5.886834 -2.168234 -2.664069 -3.995180 7.299784 -18.464518 10.372319 0.708955 -16.730866 -17.347179 -21.847550 0.454484 -46.134214 -28.813582 7.814677 164.207164 -70.058198 -131.492942 -0.305576 -14.908411 -23.304980 19.221893 3.851068 3.570968 43.081570 -11.518651 -11.286148 -44.967453 55.729710 -23.361554 1.765627 4.010015 3.375318 
